<?xml version="1.0" encoding="UTF-8"?>
<!-- Generator: Adobe Illustrator 24.0.0, SVG Export Plug-In . SVG Version: 6.00 Build 0)  -->
<svg version="1.1" id="Capa_1" xmlns="http://www.w3.org/2000/svg" xmlns:xlink="http://www.w3.org/1999/xlink" x="0px" y="0px" viewBox="0 0 268 80" style="enable-background:new 0 0 268 80;" xml:space="preserve">
<style type="text/css">
	.st0{fill:#11539D;}
	.st1{fill:#FFFFFF;}
	.st2{opacity:0.87; fill:#FFFFFF}
</style>
<g>
	<rect x="1.1" y="0.5" class="st0" width="79.1" height="79.1"/>
	<polygon class="st1" points="61.5,73.4 19.9,73.4 19.9,6.5 60,6.5 60,16 33.1,16 33.1,63.9 61.5,63.9  "/>
	<path class="st1" d="M56.9,33.6v9.3H36.5c0.3-1,0.7-2,1.2-3.1c0.5-1.1,1.1-2.1,1.8-3c0.7-0.9,1.6-1.7,2.6-2.3   c1-0.6,2.2-0.9,3.5-0.9H56.9z"/>
	<g class="st2">
		<path d="M96.1,31.1l12.2,32.5l12.2-32.5h9.5v42.3h-7.3v-14l0.7-18.7l-12.5,32.6h-5.3L93.1,40.9l0.7,18.6v14h-7.3V31.1H96.1z"/>
		<path d="M146.4,73.4h-7.3V31.1h7.3V73.4z"/>
		<path d="M189.1,73.4h-7.4l-18.9-30v30h-7.4V31.1h7.4l18.9,30.2V31.1h7.3V73.4z"/>
		<path d="M228.7,31.1v28.3c0,2.4-0.4,4.5-1.2,6.4c-0.8,1.8-2,3.3-3.4,4.6c-1.4,1.2-3.1,2.1-5,2.7c-1.9,0.6-4,0.9-6.2,0.9    c-2.3,0-4.4-0.3-6.3-0.9c-1.9-0.6-3.6-1.5-5-2.7c-1.4-1.2-2.5-2.7-3.3-4.6c-0.8-1.8-1.2-3.9-1.2-6.4V31.1h7.3v28.3    c0,1.5,0.2,2.8,0.6,3.9c0.4,1.1,1,2,1.7,2.7c0.7,0.7,1.6,1.2,2.7,1.6c1,0.3,2.2,0.5,3.5,0.5c1.3,0,2.5-0.2,3.5-0.5    c1.1-0.3,1.9-0.9,2.7-1.6c0.7-0.7,1.3-1.6,1.7-2.7c0.4-1.1,0.6-2.4,0.6-3.9V31.1H228.7z"/>
		<path d="M258.7,62.5c0-0.9-0.1-1.6-0.4-2.3c-0.3-0.7-0.7-1.3-1.4-1.8c-0.7-0.6-1.6-1.1-2.8-1.6c-1.2-0.5-2.7-1.1-4.5-1.6    c-2-0.6-3.9-1.3-5.6-2.1c-1.7-0.8-3.2-1.7-4.4-2.7c-1.2-1-2.2-2.2-2.9-3.5s-1-2.9-1-4.6c0-1.7,0.4-3.3,1.1-4.7    c0.7-1.4,1.7-2.7,3.1-3.7c1.3-1,2.9-1.9,4.7-2.4c1.8-0.6,3.9-0.9,6.1-0.9c2.4,0,4.5,0.3,6.4,1c1.9,0.7,3.5,1.6,4.8,2.8    s2.3,2.6,3,4.1c0.7,1.6,1,3.2,1,5h-7.3c0-1-0.2-2-0.5-2.8c-0.3-0.9-0.8-1.6-1.5-2.2c-0.7-0.6-1.5-1.1-2.5-1.5    c-1-0.4-2.2-0.5-3.6-0.5c-1.3,0-2.4,0.1-3.4,0.4c-0.9,0.3-1.7,0.7-2.4,1.2c-0.6,0.5-1.1,1.1-1.4,1.9c-0.3,0.7-0.5,1.5-0.5,2.3    c0,1.6,0.7,2.9,2.2,3.9c1.5,1,3.7,2,6.8,2.9c2.4,0.7,4.4,1.5,6.2,2.3c1.7,0.9,3.2,1.8,4.3,2.9s2,2.3,2.6,3.6    c0.6,1.3,0.8,2.9,0.8,4.6c0,1.8-0.4,3.4-1.1,4.8c-0.7,1.4-1.7,2.6-3,3.6c-1.3,1-2.9,1.8-4.8,2.3c-1.9,0.5-3.9,0.8-6.2,0.8    c-2,0-4-0.3-6-0.8c-2-0.6-3.8-1.4-5.3-2.5c-1.6-1.1-2.8-2.5-3.8-4.2c-1-1.7-1.4-3.6-1.4-5.9h7.4c0,1.3,0.2,2.5,0.7,3.4    s1.1,1.7,1.9,2.4c0.8,0.6,1.8,1.1,2.9,1.3c1.1,0.3,2.3,0.4,3.6,0.4c2.6,0,4.5-0.5,5.8-1.6C258.1,65.6,258.7,64.3,258.7,62.5z"/>
	</g>
</g>

</svg>

